<?xml version="1.0" encoding="UTF-8"?>
<svg version="1.1" xmlns="http://www.w3.org/2000/svg" width="1024" height="1024">
<path d="M0 0 C337.92 0 675.84 0 1024 0 C1024 337.92 1024 675.84 1024 1024 C686.08 1024 348.16 1024 0 1024 C0 686.08 0 348.16 0 0 Z " fill="#26273E" transform="translate(0,0)"/>
<path d="M0 0 C9.15375011 8.73655507 17.83766604 17.58072289 25.63916016 27.56445312 C26.58970311 28.72802556 27.54300347 29.88934896 28.49853516 31.04882812 C40.43563462 45.59698889 50.19126436 61.31229168 59.63916016 77.56445312 C60.19966064 78.52206543 60.19966064 78.52206543 60.77148438 79.49902344 C72.88019762 100.40089991 80.85957572 123.47935701 87.63916016 146.56445312 C87.89922852 147.44198242 88.15929687 148.31951172 88.42724609 149.22363281 C94.37601332 169.7266655 98.34925399 192.46279886 98.60400391 213.84814453 C98.63089931 215.9261877 98.67593334 218.00400349 98.72900391 220.08154297 C99.25865274 241.57734093 97.91496824 262.31849783 94.63916016 283.56445312 C94.47319336 284.6869043 94.30722656 285.80935547 94.13623047 286.96582031 C86.07755266 339.93433534 62.16971495 392.66479057 27.63916016 433.56445312 C26.24303881 435.31422336 24.84721298 437.06422942 23.45166016 438.81445312 C13.24134301 451.30369871 1.8957483 463.07940545 -10.36083984 473.56445312 C-11.71242188 474.74974609 -11.71242188 474.74974609 -13.09130859 475.95898438 C-71.08283508 526.43483924 -146.83347824 554.10737687 -223.54833984 553.93945312 C-224.96975784 553.93863739 -224.96975784 553.93863739 -226.41989136 553.93780518 C-261.44411225 553.84626922 -295.22687737 548.06465087 -328.36083984 536.56445312 C-329.04549316 536.33322754 -329.73014648 536.10200195 -330.43554688 535.86376953 C-364.72106583 524.22699886 -396.47593478 505.51027263 -424.36083984 482.56445312 C-424.90401855 482.1189209 -425.44719727 481.67338867 -426.00683594 481.21435547 C-438.91341215 470.58068358 -451.58674704 459.40222745 -462.49755859 446.70117188 C-463.76758244 445.24477136 -465.06324033 443.81042553 -466.38037109 442.39648438 C-481.79288573 425.81761728 -494.58738435 406.42632416 -505.29296875 386.53125 C-506.3490891 384.58609555 -507.43560469 382.66083782 -508.52880859 380.73632812 C-520.20349112 359.8540658 -529.31108839 336.44320743 -534.86083984 313.18945312 C-535.15490723 311.96790527 -535.44897461 310.74635742 -535.75195312 309.48779297 C-539.12500026 294.98497421 -541.28273353 280.30031602 -543.36083984 265.56445312 C-543.53969727 264.51410889 -543.71855469 263.46376465 -543.90283203 262.3815918 C-544.52545534 257.19251107 -544.58228745 252.04858959 -544.63427734 246.82617188 C-544.64685074 245.68479263 -544.65942413 244.54341339 -544.67237854 243.3674469 C-544.89744689 217.98779448 -544.70062745 193.44126776 -539.36083984 168.56445312 C-538.97532959 166.73624023 -538.97532959 166.73624023 -538.58203125 164.87109375 C-526.24081164 107.99087468 -497.60656537 49.98097059 -455.17333984 9.34179688 C-453.57586248 7.77530507 -452.18247761 6.19239076 -450.79833984 4.43945312 C-448.3053236 1.49897243 -445.68310747 -0.86314211 -442.75146484 -3.34960938 C-440.49409046 -5.31927918 -438.335658 -7.37012284 -436.17578125 -9.4453125 C-367.38685579 -74.95039846 -265.37398945 -101.66082258 0 0 Z " fill="#26283F" transform="translate(735.36083984375,280.435546875)"/>
<path d="M0 0 C9.15375011 8.73655507 17.83766604 17.58072289 25.63916016 27.56445312 C26.58970311 28.72802556 27.54300347 29.88934896 28.49853516 31.04882812 C40.43563462 45.59698889 50.19126436 61.31229168 59.63916016 77.56445312 C60.19966064 78.52206543 60.19966064 78.52206543 60.77148438 79.49902344 C72.88019762 100.40089991 80.85957572 123.47935701 87.63916016 146.56445312 C87.89922852 147.44198242 88.15929687 148.31951172 88.42724609 149.22363281 C94.37601332 169.7266655 98.34925399 192.46279886 98.60400391 213.84814453 C98.63089931 215.9261877 98.67593334 218.00400349 98.72900391 220.08154297 C99.25865274 241.57734093 97.91496824 262.31849783 94.63916016 283.56445312 C94.47319336 284.6869043 94.30722656 285.80935547 94.13623047 286.96582031 C86.07755266 339.93433534 62.16971495 392.66479057 27.63916016 433.56445312 C26.24303881 435.31422336 24.84721298 437.06422942 23.45166016 438.81445312 C13.24134301 451.30369871 1.8957483 463.07940545 -10.36083984 473.56445312 C-11.71242188 474.74974609 -11.71242188 474.74974609 -13.09130859 475.95898438 C-71.08283508 526.43483924 -146.83347824 554.10737687 -223.54833984 553.93945312 C-224.96975784 553.93863739 -224.96975784 553.93863739 -226.41989136 553.93780518 C-261.44411225 553.84626922 -295.22687737 548.06465087 -328.36083984 536.56445312 C-329.04549316 536.33322754 -329.73014648 536.10200195 -330.43554688 535.86376953 C-364.72106583 524.22699886 -396.47593478 505.51027263 -424.36083984 482.56445312 C-424.90401855 482.1189209 -425.44719727 481.67338867 -426.00683594 481.21435547 C-438.91341215 470.58068358 -451.58674704 459.40222745 -462.49755859 446.70117188 C-463.76758244 445.24477136 -465.06324033 443.81042553 -466.38037109 442.39648438 C-481.79288573 425.81761728 -494.58738435 406.42632416 -505.29296875 386.53125 C-506.3490891 384.58609555 -507.43560469 382.66083782 -508.52880859 380.73632812 C-520.20349112 359.8540658 -529.31108839 336.44320743 -534.86083984 313.18945312 C-535.15490723 311.96790527 -535.44897461 310.74635742 -535.75195312 309.48779297 C-539.12500026 294.98497421 -541.28273353 280.30031602 -543.36083984 265.56445312 C-543.53969727 264.51410889 -543.71855469 263.46376465 -543.90283203 262.3815918 C-544.52545534 257.19251107 -544.58228745 252.04858959 -544.63427734 246.82617188 C-544.64685074 245.68479263 -544.65942413 244.54341339 -544.67237854 243.3674469 C-544.89744689 217.98779448 -544.70062745 193.44126776 -539.36083984 168.56445312 C-538.97532959 166.73624023 -538.97532959 166.73624023 -538.58203125 164.87109375 C-526.24081164 107.99087468 -497.60656537 49.98097059 -455.17333984 9.34179688 C-453.57586248 7.77530507 -452.18247761 6.19239076 -450.79833984 4.43945312 C-448.3053236 1.49897243 -445.68310747 -0.86314211 -442.75146484 -3.34960938 C-440.49409046 -5.31927918 -438.335658 -7.37012284 -436.17578125 -9.4453125 C-367.38685579 -74.95039846 -265.37398945 -101.66082258 0 0 Z M-348.36083984 -39.43554688 C-349.2087207 -39.03883789 -350.05660156 -38.64212891 -350.93017578 -38.23339844 C-372.48159523 -28.08367989 -391.94407612 -15.51620384 -410.36083984 -0.43554688 C-411.2396582 0.26973145 -411.2396582 0.26973145 -412.13623047 0.98925781 C-420.47034055 7.68856283 -428.09368174 15.09608975 -435.67333984 22.62695312 C-436.59276367 23.53703125 -437.5121875 24.44710937 -438.45947266 25.38476562 C-444.51662793 31.4703788 -450.05065855 37.81990123 -455.36083984 44.56445312 C-455.88895264 45.22791748 -456.41706543 45.89138184 -456.96118164 46.57495117 C-485.98078214 83.38531797 -505.85865307 126.35712422 -515.61083984 172.12695312 C-515.85745361 173.27349365 -516.10406738 174.42003418 -516.3581543 175.60131836 C-519.86015949 192.80366208 -520.69030571 209.7971536 -520.62158203 227.31640625 C-520.61085213 230.56073687 -520.6215507 233.80451403 -520.63427734 237.04882812 C-520.64309907 249.68087866 -520.05197654 262.0442114 -518.36083984 274.56445312 C-518.2201709 275.63356934 -518.07950195 276.70268555 -517.93457031 277.80419922 C-515.80591562 292.79880855 -511.99833807 307.16702207 -507.36083984 321.56445312 C-507.04598633 322.54478516 -506.73113281 323.52511719 -506.40673828 324.53515625 C-495.19528343 359.00211105 -478.09911615 390.31741916 -455.36083984 418.56445312 C-454.67248047 419.44488281 -453.98412109 420.3253125 -453.27490234 421.23242188 C-425.43315585 456.26748205 -388.73362246 483.59480206 -348.36083984 502.56445312 C-347.6225293 502.91958984 -346.88421875 503.27472656 -346.12353516 503.640625 C-318.85260368 516.7261364 -289.41392388 525.02631622 -259.36083984 528.56445312 C-258.57104736 528.65944092 -257.78125488 528.75442871 -256.9675293 528.85229492 C-247.1452726 529.84986094 -237.28054482 529.75053049 -227.41870117 529.74975586 C-224.32960996 529.75193111 -221.24088331 529.77010839 -218.15185547 529.7890625 C-205.75358355 529.82424291 -193.65280956 529.17983512 -181.36083984 527.56445312 C-180.38751709 527.44400635 -179.41419434 527.32355957 -178.41137695 527.19946289 C-120.03366368 519.62172974 -61.55242101 490.35615929 -19.36083984 449.56445312 C-18.57193359 448.80277832 -17.78302734 448.04110352 -16.97021484 447.25634766 C-6.84217259 437.42607884 3.14603363 427.67747855 11.43408203 416.21826172 C12.68934069 414.49558705 13.98034866 412.80478553 15.27978516 411.11523438 C23.17079675 400.7561589 30.02962779 389.77544766 36.63916016 378.56445312 C37.05407715 377.8615918 37.46899414 377.15873047 37.89648438 376.43457031 C63.76556673 331.88900334 74.85046463 279.80100003 74.88916016 228.68945312 C74.8898349 227.879086 74.89050964 227.06871887 74.89120483 226.23379517 C74.78575659 146.00147566 38.48874397 72.40586046 -16.86083984 15.87695312 C-22.08005112 10.71671599 -27.61271003 6.11787361 -33.36083984 1.56445312 C-34.49400958 0.63156922 -35.62543776 -0.30343306 -36.75537109 -1.24023438 C-111.57670982 -62.88937261 -214.71141089 -81.37792683 -348.36083984 -39.43554688 Z " fill="#8E99BC" transform="translate(735.36083984375,280.435546875)"/>
<path d="M0 0 C3.88906575 1.98809675 6.40731389 4.95536421 8 9 C8.24609566 11.61615372 8.24609566 11.61615372 8.24050903 14.644104 C8.24325836 15.79392761 8.24600769 16.94375122 8.24884033 18.12841797 C8.24164978 19.3857373 8.23445923 20.64305664 8.22705078 21.93847656 C8.22648649 23.27895092 8.22680357 24.6194259 8.22793579 25.9598999 C8.22850962 29.59596491 8.21675042 33.23189797 8.20278788 36.86793232 C8.19028559 40.66892643 8.18911041 44.46992356 8.18673706 48.27093506 C8.18052082 55.46735558 8.16410805 62.66371533 8.14403808 69.86010909 C8.12168357 78.05350779 8.11068678 86.24690938 8.10064721 94.44033098 C8.07974194 111.29358914 8.04456316 128.14678814 8 145 C8.763125 145.28746094 9.52625 145.57492187 10.3125 145.87109375 C17.39101032 148.84447963 21.0442969 154.12298561 24 161 C26.19854065 169.98896999 25.14681478 177.70637044 21 186 C16.38182701 192.99156316 10.80885334 196.39704889 3 199 C-6.85142486 199.72840838 -15.87549096 199.67023373 -24.0234375 193.45703125 C-29.5470056 188.36462775 -33.58426434 181.56715316 -34.2734375 173.99609375 C-34.50621263 165.8400114 -34.00057113 159.64066671 -29 153 C-25.7050822 149.57442167 -22.28428391 146.14214196 -18 144 C-17.99780016 142.95693475 -17.99780016 142.95693475 -17.99555588 141.89279747 C-17.95849132 124.96649109 -17.89948144 108.04041762 -17.81609726 91.11427879 C-17.77630136 82.92888437 -17.74391171 74.74358617 -17.72900391 66.55810547 C-17.7159902 59.42296432 -17.68903288 52.28803482 -17.64538693 45.15301287 C-17.62276557 41.37562141 -17.60708971 37.59849106 -17.60811615 33.82102585 C-17.60886239 30.26352245 -17.59092727 26.7065964 -17.55883217 23.1492424 C-17.54628808 21.22528844 -17.55340011 19.30123758 -17.56114197 17.3772583 C-17.4327263 6.73897528 -17.4327263 6.73897528 -13 2 C-8.75091594 -0.83272271 -4.98854595 -0.76806539 0 0 Z " fill="#799DC1" transform="translate(517,345)"/>
<path d="M0 0 C3 1 3 1 3.95703125 2.78515625 C4.23933594 3.53667969 4.52164063 4.28820312 4.8125 5.0625 C6.57000688 9.31715951 8.77817617 12.67925808 11.6328125 16.2734375 C12.83369768 17.78998393 13.92696859 19.39045289 15 21 C3.67714504 27.18607109 -7.65246671 33.3592987 -19 39.5 C-41.6858419 51.72754629 -41.6858419 51.72754629 -64.16796875 64.32324219 C-69.4552479 67.33437045 -73.86587749 68.83647125 -80 68 C-84.36350222 65.77708378 -87.09544338 63.54977416 -89 59 C-89.55139315 55.69164112 -89.76541948 53.33445623 -88.05224609 50.34765625 C-83.39426887 44.58241323 -77.58961511 41.68799454 -71.0625 38.375 C-69.30335122 37.45669217 -67.54422047 36.53834454 -65.78684998 35.61663818 C-64.5934866 34.99088748 -63.39927777 34.36674657 -62.20423889 33.74420166 C-56.57409129 30.80394423 -51.0669396 27.6672776 -45.5625 24.5 C-35.86089059 18.94999176 -25.99087067 13.76205873 -16.04516602 8.66796875 C-14.96807373 8.11625 -13.89098145 7.56453125 -12.78125 6.99609375 C-11.77320313 6.48159668 -10.76515625 5.96709961 -9.7265625 5.43701172 C-7.39600876 4.20871307 -5.15281568 2.90812278 -2.90625 1.53515625 C-1.46765625 0.77525391 -1.46765625 0.77525391 0 0 Z " fill="#73A4AE" transform="translate(469,529)"/>
<path d="M0 0 C0.886875 -0.00257813 1.77375 -0.00515625 2.6875 -0.0078125 C4.0796875 0.00378906 4.0796875 0.00378906 5.5 0.015625 C6.428125 0.00789062 7.35625 0.00015625 8.3125 -0.0078125 C9.6428125 -0.00394531 9.6428125 -0.00394531 11 0 C11.8146875 0.00225586 12.629375 0.00451172 13.46875 0.00683594 C15.5 0.265625 15.5 0.265625 17.5 2.265625 C17.74050903 5.12564087 17.74050903 5.12564087 17.72705078 8.82666016 C17.72734283 9.49994858 17.72763489 10.173237 17.72793579 10.8669281 C17.72654047 13.09631154 17.71097016 15.32536232 17.6953125 17.5546875 C17.69158308 19.09882423 17.68873577 20.64296333 17.68673706 22.18710327 C17.67909499 26.25437943 17.65944168 30.32151311 17.6373291 34.38873291 C17.61688296 38.5377815 17.60773799 42.68685307 17.59765625 46.8359375 C17.57619625 54.97923211 17.54205349 63.12241084 17.5 71.265625 C13.68751574 71.29449736 9.8750593 71.31237992 6.0625 71.328125 C4.97388672 71.33650391 3.88527344 71.34488281 2.76367188 71.35351562 C1.72919922 71.35673828 0.69472656 71.35996094 -0.37109375 71.36328125 C-1.32943115 71.36851807 -2.28776855 71.37375488 -3.27514648 71.37915039 C-5.5 71.265625 -5.5 71.265625 -6.5 70.265625 C-6.60474558 68.15968072 -6.63856457 66.05018734 -6.64526367 63.94165039 C-6.64862228 63.28147415 -6.6519809 62.62129791 -6.65544128 61.94111633 C-6.66497695 59.74848575 -6.6668957 57.55593131 -6.66796875 55.36328125 C-6.67117955 53.8449246 -6.67454349 52.32656827 -6.67805481 50.80821228 C-6.68405265 47.62123904 -6.68589404 44.43429294 -6.68530273 41.24731445 C-6.68520108 37.156929 -6.69885343 33.06671703 -6.71607494 28.97637272 C-6.72717571 25.83917944 -6.72922254 22.70202834 -6.72869301 19.56481743 C-6.72987603 18.0564864 -6.73431575 16.54815439 -6.74202538 15.03984261 C-6.75178662 12.93276841 -6.74896282 10.82607402 -6.74291992 8.71899414 C-6.74434494 7.51843887 -6.74576996 6.31788361 -6.74723816 5.08094788 C-6.32887323 0.31698922 -4.2787071 0.01184769 0 0 Z " fill="#72AFAA" transform="translate(506.5,724.734375)"/>
<path d="M0 0 C0.98484375 -0.00128906 1.9696875 -0.00257813 2.984375 -0.00390625 C4.02078125 -0.00003906 5.0571875 0.00382813 6.125 0.0078125 C7.67960938 0.00201172 7.67960938 0.00201172 9.265625 -0.00390625 C10.25046875 -0.00261719 11.2353125 -0.00132812 12.25 0 C13.16007813 0.00112793 14.07015625 0.00225586 15.0078125 0.00341797 C17.125 0.1328125 17.125 0.1328125 18.125 1.1328125 C18.22448193 3.24419151 18.25299638 5.35893536 18.25439453 7.47265625 C18.25614685 8.13443878 18.25789917 8.79622131 18.25970459 9.47805786 C18.26412217 11.6755024 18.26118547 13.87286708 18.2578125 16.0703125 C18.25848557 17.59106461 18.25945561 19.11181662 18.26071167 20.63256836 C18.26218851 23.82374086 18.26003452 27.01488542 18.25537109 30.20605469 C18.2496738 34.3054578 18.25295288 38.40479546 18.25894356 42.50419617 C18.26254954 45.64563494 18.26141042 48.78705808 18.25881577 51.92849731 C18.2581466 53.44043994 18.25897457 54.95238396 18.26129532 56.46432495 C18.26382245 58.57391137 18.25998044 60.68339037 18.25439453 62.79296875 C18.25359894 63.99574463 18.25280334 65.19852051 18.25198364 66.43774414 C18.125 69.1328125 18.125 69.1328125 17.125 70.1328125 C13.65291193 70.38380174 10.1675938 70.31803346 6.6875 70.3203125 C5.21700195 70.33868164 5.21700195 70.33868164 3.71679688 70.35742188 C2.78029297 70.35935547 1.84378906 70.36128906 0.87890625 70.36328125 C0.01595947 70.36739014 -0.8469873 70.37149902 -1.73608398 70.37573242 C-3.875 70.1328125 -3.875 70.1328125 -5.875 68.1328125 C-6.12223816 65.35545349 -6.12223816 65.35545349 -6.11791992 61.77124023 C-6.11981827 61.11906525 -6.12171661 60.46689026 -6.12367249 59.79495239 C-6.12738279 57.63531544 -6.11667372 55.4760134 -6.10546875 53.31640625 C-6.10427709 51.81950419 -6.10382376 50.32260137 -6.1040802 48.82569885 C-6.10251496 45.68754399 -6.09422151 42.54950314 -6.08081055 39.41137695 C-6.06380597 35.38037519 -6.05999659 31.34949866 -6.06075573 27.31846523 C-6.06048438 24.22763362 -6.05500915 21.13682961 -6.04775429 18.04600716 C-6.04456303 16.55918652 -6.04259915 15.07236274 -6.04186058 13.58553886 C-6.03970265 11.51196793 -6.0309709 9.43853231 -6.02026367 7.36499023 C-6.01645187 6.18299545 -6.01264008 5.00100067 -6.00871277 3.78318787 C-5.78135041 -0.72345428 -4.0446832 0.00501289 0 0 Z " fill="#CA71B6" transform="translate(505.875,227.8671875)"/>
<path d="M0 0 C1.18279037 0.00142502 2.36558075 0.00285004 3.58421326 0.00431824 C4.23638824 0.00241989 4.88856323 0.00052155 5.5605011 -0.00143433 C7.72013805 -0.00514463 9.87944009 0.00556444 12.03904724 0.01676941 C13.5359493 0.01796106 15.03285212 0.0184144 16.52975464 0.01815796 C19.6679095 0.0197232 22.80595035 0.02801665 25.94407654 0.04142761 C29.9750783 0.05843219 34.00595483 0.06224157 38.03698826 0.06148243 C41.12781987 0.06175378 44.21862388 0.06722901 47.30944633 0.07448387 C48.79626697 0.07767513 50.28309075 0.07963901 51.76991463 0.08037758 C53.84348556 0.08253551 55.91692118 0.09126726 57.99046326 0.10197449 C59.17245804 0.10578629 60.35445282 0.10959808 61.57226562 0.11352539 C64.22264099 0.24723816 64.22264099 0.24723816 65.22264099 1.24723816 C65.3218067 2.8698136 65.35343876 4.49663647 65.35545349 6.12223816 C65.35674255 7.10708191 65.35803162 8.09192566 65.35935974 9.10661316 C65.35549255 10.14301941 65.35162537 11.17942566 65.34764099 12.24723816 C65.35150818 13.28364441 65.35537537 14.32005066 65.35935974 15.38786316 C65.35807068 16.37270691 65.35678162 17.35755066 65.35545349 18.37223816 C65.35432556 19.28231628 65.35319763 20.19239441 65.35203552 21.13005066 C65.22264099 23.24723816 65.22264099 23.24723816 64.22264099 24.24723816 C62.1473236 24.35193896 60.06840927 24.38580069 57.99046326 24.39250183 C57.34004059 24.39586044 56.68961792 24.39921906 56.01948547 24.40267944 C53.85932022 24.41221484 51.69923226 24.41413385 49.53904724 24.41520691 C48.04311083 24.41841773 46.54717475 24.42178167 45.05123901 24.42529297 C41.91134411 24.43129075 38.77147677 24.43313221 35.63157654 24.43254089 C31.60172417 24.43243924 27.57204789 24.44609148 23.54223728 24.4633131 C20.45136702 24.47441419 17.36053957 24.47646069 14.26965141 24.47593117 C12.78364899 24.47711415 11.29764556 24.48155362 9.81166267 24.48926353 C7.73571964 24.49902542 5.66016207 24.49620074 3.58421326 24.49015808 C1.81002769 24.49229561 1.81002769 24.49229561 0 24.49447632 C-2.77735901 24.24723816 -2.77735901 24.24723816 -4.77735901 22.24723816 C-5.03614807 20.21598816 -5.03614807 20.21598816 -5.04298401 17.74723816 C-5.04556213 16.86036316 -5.04814026 15.97348816 -5.05079651 15.05973816 C-5.03919495 13.66755066 -5.03919495 13.66755066 -5.02735901 12.24723816 C-5.03509338 11.31911316 -5.04282776 10.39098816 -5.05079651 9.43473816 C-5.04821838 8.54786316 -5.04564026 7.66098816 -5.04298401 6.74723816 C-5.04072815 5.93255066 -5.03847229 5.11786316 -5.03614807 4.27848816 C-4.60050995 0.8591399 -3.2960772 0.29341402 0 0 Z " fill="#7B8FE0" transform="translate(730.7773590087891,499.7527618408203)"/>
<path d="M0 0 C1.31476318 -0.00630432 2.62952637 -0.01260864 3.98413086 -0.019104 C5.42561985 -0.01552433 6.86710762 -0.0114224 8.30859375 -0.00683594 C9.78068099 -0.00818261 11.2527678 -0.01012317 12.72485352 -0.01263428 C15.81172923 -0.01558543 18.89848928 -0.01128825 21.98535156 -0.00195312 C25.94681504 0.0094415 29.90800753 0.00288197 33.86946106 -0.00909805 C36.90972952 -0.01631694 39.94993348 -0.01402861 42.99020386 -0.00884247 C44.45108065 -0.00750605 45.91196325 -0.00915344 47.37283325 -0.01380157 C49.4126169 -0.018867 51.45242101 -0.00978073 53.4921875 0 C55.23520142 0.00238678 55.23520142 0.00238678 57.01342773 0.00482178 C59.74609375 0.25878906 59.74609375 0.25878906 61.74609375 2.25878906 C61.98901367 4.39770508 61.98901367 4.39770508 61.9765625 7.01269531 C61.97462891 7.94919922 61.97269531 8.88570313 61.97070312 9.85058594 C61.95845703 10.83091797 61.94621094 11.81125 61.93359375 12.82128906 C61.93262695 14.29758789 61.93262695 14.29758789 61.93164062 15.80371094 C61.88626907 23.11861374 61.88626907 23.11861374 60.74609375 24.25878906 C58.63471474 24.35827099 56.51997089 24.38678544 54.40625 24.38818359 C53.4135762 24.39081207 53.4135762 24.39081207 52.40084839 24.39349365 C50.20340385 24.39791123 48.00603917 24.39497453 45.80859375 24.39160156 C44.28784164 24.39227463 42.76708963 24.39324468 41.24633789 24.39450073 C38.05516539 24.39597758 34.86402083 24.39382358 31.67285156 24.38916016 C27.57344845 24.38346287 23.47411079 24.38674194 19.37471008 24.39273262 C16.23327131 24.3963386 13.09184817 24.39519948 9.95040894 24.39260483 C8.43846631 24.39193566 6.92652229 24.39276363 5.4145813 24.39508438 C3.30499488 24.39761152 1.19551588 24.3937695 -0.9140625 24.38818359 C-2.11683838 24.387388 -3.31961426 24.38659241 -4.55883789 24.38577271 C-7.25390625 24.25878906 -7.25390625 24.25878906 -8.25390625 23.25878906 C-8.50489549 19.78670099 -8.43912721 16.30138286 -8.44140625 12.82128906 C-8.45365234 11.84095703 -8.46589844 10.860625 -8.47851562 9.85058594 C-8.48141602 8.44583008 -8.48141602 8.44583008 -8.484375 7.01269531 C-8.48848389 6.14974854 -8.49259277 5.28680176 -8.49682617 4.39770508 C-7.92014834 -0.67995776 -4.18158115 0.00572601 0 0 Z " fill="#81AA9A" transform="translate(236.25390625,499.7412109375)"/>
<path d="M0 0 C3.67249953 1.61436275 5.20958294 5.3376357 7.22583008 8.65356445 C7.69311523 9.37866211 8.16040039 10.10375977 8.6418457 10.85083008 C9.07819336 11.55530273 9.51454102 12.25977539 9.96411133 12.9855957 C10.36283447 13.62859619 10.76155762 14.27159668 11.17236328 14.93408203 C11.91333008 16.84106445 11.91333008 16.84106445 11.77563477 18.92211914 C10.64235363 21.44408678 9.47435131 22.06801633 7.06567383 23.3996582 C6.24437988 23.86162598 5.42308594 24.32359375 4.5769043 24.79956055 C3.6772998 25.28763184 2.77769531 25.77570313 1.85083008 26.27856445 C0.92286621 26.79499512 -0.00509766 27.31142578 -0.96118164 27.84350586 C-3.99465858 29.5250688 -7.03917523 31.18505479 -10.08666992 32.84106445 C-11.13226074 33.41195801 -12.17785156 33.98285156 -13.25512695 34.57104492 C-19.25268058 37.84386139 -25.25594111 41.10565364 -31.28686523 44.31665039 C-33.23159985 45.37550311 -35.15710761 46.47013518 -37.06616211 47.59204102 C-38.02941406 48.15117187 -38.99266602 48.71030273 -39.98510742 49.28637695 C-41.27553955 50.05618896 -41.27553955 50.05618896 -42.59204102 50.84155273 C-45.61842705 52.05412119 -47.04693726 51.96611053 -50.08666992 50.84106445 C-51.81688908 48.40329862 -53.13435148 46.23078764 -54.46166992 43.59106445 C-54.82905273 42.92204102 -55.19643555 42.25301758 -55.57495117 41.5637207 C-58.11509861 36.68472052 -58.11509861 36.68472052 -58.00146484 33.3125 C-56.7349166 29.89075785 -55.12619766 29.25084607 -51.92651367 27.5637207 C-50.83346924 26.97421631 -49.7404248 26.38471191 -48.61425781 25.77734375 C-47.41758464 25.15270699 -46.22088814 24.52811491 -45.02416992 23.90356445 C-43.18599575 22.91991691 -41.35134505 21.92991235 -39.51689148 20.93934631 C-38.25952723 20.2606673 -37.00114134 19.58387789 -35.74177551 18.90892029 C-29.28420178 15.43954333 -22.9635481 11.75225297 -16.64916992 8.02856445 C-14.69259278 6.87544984 -12.73559665 5.72304568 -10.77807617 4.5715332 C-9.96540283 4.09095459 -9.15272949 3.61037598 -8.31542969 3.11523438 C-7.2121936 2.48452026 -7.2121936 2.48452026 -6.08666992 1.84106445 C-5.41240967 1.43412354 -4.73814941 1.02718262 -4.04345703 0.60791016 C-2.08666992 -0.15893555 -2.08666992 -0.15893555 0 0 Z " fill="#9389DA" transform="translate(751.086669921875,361.158935546875)"/>
<path d="M0 0 C2.44070179 1.02808287 3.04480058 1.98988045 4.34082031 4.27685547 C4.73849609 4.97746094 5.13617188 5.67806641 5.54589844 6.39990234 C5.94615234 7.13660156 6.34640625 7.87330078 6.75878906 8.63232422 C7.17837891 9.35742188 7.59796875 10.08251953 8.03027344 10.82958984 C11.01233477 16.19926535 11.01233477 16.19926535 10.7199707 18.94628906 C9.42316773 22.08660651 6.45240603 23.13605747 3.57128906 24.63232422 C2.12050813 25.41699977 0.67000937 26.20219715 -0.78027344 26.98779297 C-1.60301758 27.42784668 -2.42576172 27.86790039 -3.2734375 28.32128906 C-8.21985191 30.98734909 -13.12457822 33.72901182 -18.03448486 36.46151733 C-19.75745844 37.41911784 -21.4824624 38.37306228 -23.20751953 39.3269043 C-24.30660645 39.9355835 -25.40569336 40.5442627 -26.53808594 41.17138672 C-28.1574707 42.06519043 -28.1574707 42.06519043 -29.80957031 42.97705078 C-32.02261423 44.23412901 -34.21106684 45.53526204 -36.37597656 46.87353516 C-37.42978516 47.52354492 -38.48359375 48.17355469 -39.56933594 48.84326172 C-40.50551758 49.43800293 -41.44169922 50.03274414 -42.40625 50.64550781 C-45.53889306 52.03503318 -46.87287201 52.02508499 -50.05371094 50.81982422 C-51.87222446 48.55254848 -53.32891316 46.47773464 -54.80371094 44.00732422 C-55.20203125 43.37761719 -55.60035156 42.74791016 -56.01074219 42.09912109 C-57.90503206 39.03936135 -59.30341658 36.32999288 -60.05371094 32.81982422 C-53.4833312 28.23683844 -46.68622023 24.32592713 -39.61621094 20.56982422 C-37.49339885 19.43127707 -35.37100703 18.291946 -33.24902344 17.15185547 C-32.20520508 16.59191895 -31.16138672 16.03198242 -30.0859375 15.45507812 C-25.70155787 13.09061961 -21.34296996 10.68118235 -16.99121094 8.25732422 C-16.28488525 7.86448242 -15.57855957 7.47164062 -14.85083008 7.06689453 C-14.1843042 6.69532227 -13.51777832 6.32375 -12.83105469 5.94091797 C-12.19925293 5.5914209 -11.56745117 5.24192383 -10.91650391 4.88183594 C-9.64391078 4.15630775 -8.38793199 3.40104704 -7.14794922 2.62109375 C-2.55874134 -0.22448301 -2.55874134 -0.22448301 0 0 Z " fill="#7FAD9B" transform="translate(321.0537109375,611.18017578125)"/>
<path d="M0 0 C3.44220157 0.45908176 6.10796989 1.39463098 9.125 3.08203125 C9.90351318 3.51346436 10.68202637 3.94489746 11.48413086 4.3894043 C12.31436768 4.85902588 13.14460449 5.32864746 14 5.8125 C14.87213135 6.29952393 15.7442627 6.78654785 16.64282227 7.28833008 C19.43322628 8.85072726 22.21712264 10.42424087 25 12 C25.9163623 12.5165918 26.83272461 13.03318359 27.77685547 13.56542969 C33.08511594 16.56021964 38.37720236 19.58120015 43.64990234 22.63818359 C45.15331412 23.50936902 46.65867157 24.37721083 48.16650391 25.24072266 C50.03570867 26.31409589 51.89435582 27.40339901 53.75 28.5 C54.75546875 29.0878125 55.7609375 29.675625 56.796875 30.28125 C59 32 59 32 59.75244141 33.88012695 C60.05867538 36.50244411 59.55047963 37.41981815 58.1640625 39.63671875 C57.75929688 40.29607422 57.35453125 40.95542969 56.9375 41.63476562 C56.504375 42.31216797 56.07125 42.98957031 55.625 43.6875 C55.19960938 44.37650391 54.77421875 45.06550781 54.3359375 45.77539062 C51.23557224 50.76442776 51.23557224 50.76442776 50 52 C45.01619887 52.7674499 41.73165539 50.36492712 37.6875 47.8125 C30.49790683 43.42028306 23.17995 39.34620012 15.75 35.375 C1.94675103 27.9418151 1.94675103 27.9418151 -3.9375 24.4375 C-4.91589844 23.85871094 -5.89429688 23.27992188 -6.90234375 22.68359375 C-9.32542911 20.73880829 -9.64059933 20.0202085 -10 17 C-9.30322266 15.09301758 -9.30322266 15.09301758 -8.1640625 13.14453125 C-7.55691406 12.08782227 -7.55691406 12.08782227 -6.9375 11.00976562 C-6.504375 10.28466797 -6.07125 9.55957031 -5.625 8.8125 C-5.19960938 8.07580078 -4.77421875 7.33910156 -4.3359375 6.58007812 C-1.21880151 1.21880151 -1.21880151 1.21880151 0 0 Z " fill="#90A796" transform="translate(272,361)"/>
<path d="M0 0 C4.9889289 0.50722039 8.62733512 2.18305205 12.8125 4.8125 C13.39708984 5.15603516 13.98167969 5.49957031 14.58398438 5.85351562 C16.86389932 7.26162068 18.69434109 8.50168987 20.109375 10.80859375 C19.93063413 14.38979473 18.15324914 17.18804214 16.4375 20.25 C16.04054932 20.97872314 15.64359863 21.70744629 15.23461914 22.45825195 C10.43672102 31.18080002 5.37445221 39.75713157 0.3125 48.328125 C-1.68795954 51.72483289 -3.63980252 55.13390604 -5.5 58.609375 C-5.85698975 59.2691333 -6.21397949 59.9288916 -6.58178711 60.60864258 C-7.48528011 62.29349845 -8.37047191 63.98813432 -9.25390625 65.68359375 C-11 68 -11 68 -13.265625 69.0859375 C-17.18553335 68.96274038 -19.93854969 67.19390505 -23.1875 65.1875 C-23.81591797 64.81818359 -24.44433594 64.44886719 -25.09179688 64.06835938 C-27.64717468 62.54606479 -29.88973114 61.11026886 -32 59 C-31.65508607 54.96186716 -30.0752549 51.94726771 -28.11328125 48.44921875 C-27.51088623 47.36898437 -26.90849121 46.28875 -26.2878418 45.17578125 C-25.62969881 44.01284858 -24.97124451 42.85009205 -24.3125 41.6875 C-23.64003124 40.48977956 -22.96791646 39.29186031 -22.29614258 38.09375 C-5.62488632 8.43732947 -5.62488632 8.43732947 0 0 Z " fill="#BE74CE" transform="translate(643,262)"/>
<path d="M0 0 C4.00919839 0.46778386 6.95625361 1.87838552 10.4453125 3.8515625 C11.51023926 4.44855957 12.57516602 5.04555664 13.67236328 5.66064453 C14.8117334 6.30888184 15.95110352 6.95711914 17.125 7.625 C18.92248484 8.6418274 20.72087408 9.65703831 22.51950073 10.67184448 C23.76533145 11.37476422 25.0107073 12.0784907 26.25564575 12.7829895 C30.72154485 15.30302181 35.22549571 17.74334879 39.75 20.15625 C41.60809953 21.15583597 43.4653343 22.15700715 45.32220459 23.15887451 C46.5201299 23.80084762 47.72118817 24.43700992 48.925354 25.06719971 C50.60695512 25.94844502 52.27646949 26.85263924 53.9453125 27.7578125 C55.37641357 28.51795654 55.37641357 28.51795654 56.83642578 29.29345703 C59 31 59 31 59.91479492 33.48510742 C60.04496722 37.3272416 58.14107393 40.02409855 56.1875 43.1875 C55.81818359 43.81591797 55.44886719 44.44433594 55.06835938 45.09179688 C53.54606479 47.64717468 52.11026886 49.88973114 50 52 C46.22824852 51.64229965 43.36368496 50.32127746 40.0703125 48.515625 C39.12091797 47.99871094 38.17152344 47.48179687 37.19335938 46.94921875 C36.18080078 46.38847656 35.16824219 45.82773437 34.125 45.25 C32.5481543 44.38568359 32.5481543 44.38568359 30.93945312 43.50390625 C23.43599107 39.37856814 15.96092659 35.20172463 8.5 31 C7.09645264 30.20964355 7.09645264 30.20964355 5.66455078 29.40332031 C0.35687326 26.39425843 -4.85047932 23.27259258 -10 20 C-9.50835101 14.93755184 -7.73158911 11.37561827 -5 7.1875 C-4.63132812 6.60291016 -4.26265625 6.01832031 -3.8828125 5.41601562 C-1.21552579 1.21552579 -1.21552579 1.21552579 0 0 Z " fill="#6E9BD4" transform="translate(703,611)"/>
<path d="M0 0 C4.35626208 0.58781355 7.43190583 2.19347417 11.1875 4.4375 C12.23292969 5.05496094 13.27835937 5.67242188 14.35546875 6.30859375 C17 8 17 8 19 10 C19.51112766 14.11416579 18.5067238 16.43762824 16.39453125 19.9296875 C15.82927734 20.87908203 15.26402344 21.82847656 14.68164062 22.80664062 C14.06482422 23.81919922 13.44800781 24.83175781 12.8125 25.875 C11.52566536 28.02764339 10.24055289 30.18131708 8.95703125 32.3359375 C8.29912598 33.43647461 7.6412207 34.53701172 6.96337891 35.67089844 C3.33483337 41.82345338 -0.11749854 48.07689495 -3.55932617 54.33544922 C-6.661016 59.89803799 -10.02698194 65.0196387 -14 70 C-16.23310552 68.92424145 -18.46124501 67.83977517 -20.6875 66.75 C-21.31333984 66.44964844 -21.93917969 66.14929688 -22.58398438 65.83984375 C-26.45438826 63.93503765 -29.7119061 61.84171786 -33 59 C-32.41933397 55.19439766 -31.33578266 52.473423 -29.3671875 49.17578125 C-28.81522705 48.2415332 -28.2632666 47.30728516 -27.69458008 46.34472656 C-26.79388794 44.84377441 -26.79388794 44.84377441 -25.875 43.3125 C-24.6046187 41.16847219 -23.33511979 39.02392136 -22.06640625 36.87890625 C-21.4027002 35.76016113 -20.73899414 34.64141602 -20.05517578 33.48876953 C-17.95465575 29.93468914 -15.89302928 26.35892921 -13.83984375 22.77734375 C-13.50128357 22.18717972 -13.16272339 21.59701569 -12.81390381 20.9889679 C-11.16937908 18.12084376 -9.52763989 15.25115146 -7.88818359 12.38012695 C-7.29215332 11.34202881 -6.69612305 10.30393066 -6.08203125 9.234375 C-5.55843018 8.31881836 -5.0348291 7.40326172 -4.49536133 6.45996094 C-3.11465876 4.18862068 -1.63559636 2.0928303 0 0 Z " fill="#78AFA2" transform="translate(394,693)"/>
<path d="M0 0 C2.55160997 1.70712149 3.54231676 3.3955486 5.05688477 6.06225586 C5.6144043 7.03146973 6.17192383 8.00068359 6.74633789 8.99926758 C7.33350586 10.0448584 7.92067383 11.09044922 8.52563477 12.16772461 C9.13858398 13.23909668 9.7515332 14.31046875 10.38305664 15.41430664 C12.27350431 18.72259006 14.14991072 22.03857648 16.02563477 25.35522461 C17.68125478 28.25864648 19.34036497 31.1600467 21.00024414 34.06103516 C21.98323559 35.78111286 22.96388708 37.50253097 23.94165039 39.22558594 C24.39217773 40.01860107 24.84270508 40.81161621 25.30688477 41.62866211 C25.74129883 42.39919922 26.17571289 43.16973633 26.62329102 43.96362305 C27.62986557 45.68026726 28.68560635 47.36843602 29.77172852 49.03588867 C30.34020508 49.91728516 30.90868164 50.79868164 31.49438477 51.70678711 C32.02483398 52.50165527 32.5552832 53.29652344 33.10180664 54.11547852 C34.02563477 56.35522461 34.02563477 56.35522461 33.40600586 58.49389648 C30.99205982 61.74892383 27.64105356 63.29041664 24.15063477 65.23022461 C23.43004883 65.65819336 22.70946289 66.08616211 21.96704102 66.52709961 C21.26708008 66.92155273 20.56711914 67.31600586 19.84594727 67.72241211 C19.20931152 68.08447754 18.57267578 68.44654297 17.91674805 68.81958008 C16.02563477 69.35522461 16.02563477 69.35522461 13.92651367 68.68359375 C11.78121592 67.18442023 10.98433582 66.04777715 9.79125977 63.73413086 C9.38979736 62.97640381 8.98833496 62.21867676 8.57470703 61.43798828 C8.14601318 60.60630127 7.71731934 59.77461426 7.27563477 58.91772461 C2.61217419 50.14506387 -2.31970382 41.57045076 -7.41186523 33.04272461 C-7.75834106 32.46209259 -8.10481689 31.88146057 -8.46179199 31.28323364 C-9.46460999 29.60276118 -10.46753307 27.92235142 -11.47045898 26.24194336 C-12.63888673 24.27997705 -13.80691032 22.31776995 -14.97436523 20.35522461 C-15.42239502 19.60668213 -15.8704248 18.85813965 -16.33203125 18.08691406 C-18.96710205 13.60943604 -18.96710205 13.60943604 -19.03686523 11.16772461 C-16.30216214 6.50264285 -5.53120028 -1.80634351 0 0 Z " fill="#6B9EC9" transform="translate(629.974365234375,693.644775390625)"/>
<path d="M0 0 C3.03453578 1.27291389 3.79809988 3.0459188 5.4609375 5.875 C5.78980957 6.42897461 6.11868164 6.98294922 6.45751953 7.55371094 C10.69062923 14.76148917 14.72457593 22.09089112 18.77709961 29.40112305 C21.52828261 34.35682493 24.30017331 39.28589928 27.24609375 44.12890625 C27.95499756 45.29728027 27.95499756 45.29728027 28.67822266 46.48925781 C29.55122 47.91584005 30.4344597 49.33622364 31.32958984 50.74902344 C34.13418806 55.33707665 34.13418806 55.33707665 33.90185547 57.92724609 C32.87795858 60.37148589 31.91709176 60.97282554 29.62890625 62.26953125 C28.92830078 62.66720703 28.22769531 63.06488281 27.50585938 63.47460938 C26.76916016 63.87486328 26.03246094 64.27511719 25.2734375 64.6875 C24.54833984 65.10708984 23.82324219 65.52667969 23.07617188 65.95898438 C17.75424871 68.91452633 17.75424871 68.91452633 15.02197266 68.75292969 C12.35539433 67.54372216 11.67035029 66.10373099 10.25390625 63.55859375 C9.74005371 62.65093262 9.22620117 61.74327148 8.69677734 60.80810547 C8.1652002 59.84018066 7.63362305 58.87225586 7.0859375 57.875 C6.55307129 56.93156738 6.02020508 55.98813477 5.47119141 55.01611328 C3.15208969 50.90663478 0.86556466 46.77926753 -1.42407227 42.65332031 C-4.31658591 37.4586331 -7.23551383 32.29191416 -10.3046875 27.19921875 C-10.82071533 26.3373999 -11.33674316 25.47558105 -11.8684082 24.58764648 C-12.83383134 22.98464678 -13.81098739 21.38863605 -14.80151367 19.80102539 C-16.60882748 16.78860876 -17.8604451 14.66138848 -18.1015625 11.125 C-16.35549396 7.81665961 -13.64315275 6.38609832 -10.4765625 4.625 C-9.87779297 4.274375 -9.27902344 3.92375 -8.66210938 3.5625 C-2.28764025 -0.14939691 -2.28764025 -0.14939691 0 0 Z " fill="#B689A0" transform="translate(379.9140625,262.125)"/>
<path d="M0 0 C1.31787109 1.79418945 1.31787109 1.79418945 2.2734375 4.11328125 C2.62277344 4.94923828 2.97210937 5.78519531 3.33203125 6.64648438 C3.67621094 7.52626953 4.02039063 8.40605469 4.375 9.3125 C4.74238281 10.18068359 5.10976563 11.04886719 5.48828125 11.94335938 C8.49355268 19.33179084 8.49355268 19.33179084 7 23 C4.4288082 24.49986189 2.53362354 24.98029961 -0.43359375 25.08984375 C-3.51128907 23.78287724 -3.70242815 23.10962557 -5.01953125 20.140625 C-5.63792598 18.51817002 -6.23482124 16.8873941 -6.8125 15.25 C-7.12380859 14.43789063 -7.43511719 13.62578125 -7.75585938 12.7890625 C-9.24300196 8.77541174 -10.45069768 5.34790705 -10 1 C-6.22151633 -0.8352635 -4.02146825 -1.33000647 0 0 Z " fill="#6A9ABF" transform="translate(614,752)"/>
<path d="M0 0 C6.625 0.75 6.625 0.75 10 3 C9.26905294 8.05485927 7.31619096 12.59903179 5.4375 17.3125 C5.10814453 18.14845703 4.77878906 18.98441406 4.43945312 19.84570312 C3.63001123 21.89863546 2.81676543 23.94997286 2 26 C-1.96057533 26.08680713 -4.57602277 26.10706291 -8 24 C-7.45026573 18.16971962 -5.7546141 13.41709832 -3.4375 8.0625 C-3.10814453 7.28326172 -2.77878906 6.50402344 -2.43945312 5.70117188 C-1.63366651 3.79764697 -0.81785783 1.89836975 0 0 Z " fill="#C072BF" transform="translate(612,247)"/>
<path d="M0 0 C3.46284124 1.27954686 5.40368649 4.32881168 7.65869141 7.12646484 C8.14853516 7.71685547 8.63837891 8.30724609 9.14306641 8.91552734 C15.05510919 16.08751367 15.05510919 16.08751367 14.97119141 18.68896484 C13.60365443 21.6975462 11.80410504 23.01190279 9.03369141 24.75146484 C5.39848983 24.38344371 4.99481467 23.70411031 2.52587891 20.69677734 C1.64228281 19.43108564 0.77023195 18.15727141 -0.09130859 16.87646484 C-0.53345703 16.23837891 -0.97560547 15.60029297 -1.43115234 14.94287109 C-6.97670091 6.9177419 -6.97670091 6.9177419 -6.84130859 4.75146484 C-5.4781381 1.63564657 -3.55904558 -0.44985205 0 0 Z " fill="#6A96C7" transform="translate(675.96630859375,713.24853515625)"/>
<path d="M0 0 C1.47906892 -0.02689216 2.95827483 -0.04634621 4.4375 -0.0625 C5.26121094 -0.07410156 6.08492188 -0.08570313 6.93359375 -0.09765625 C9 0 9 0 10 1 C10.29602174 2.43551034 10.5375924 3.88236676 10.75390625 5.33203125 C10.88603516 6.21310547 11.01816406 7.09417969 11.15429688 8.00195312 C11.28900391 8.92943359 11.42371094 9.85691406 11.5625 10.8125 C11.77036133 12.18631836 11.77036133 12.18631836 11.98242188 13.58789062 C12.55579947 17.46595682 13 21.06627969 13 25 C11.35492782 25.19406478 9.70890406 25.38007935 8.0625 25.5625 C7.14597656 25.66691406 6.22945313 25.77132813 5.28515625 25.87890625 C4.15400391 25.93884766 4.15400391 25.93884766 3 26 C0.6291918 23.6291918 0.8579958 18.45208326 0.375 15.25 C0.22804688 14.3425 0.08109375 13.435 -0.0703125 12.5 C-0.204375 11.61828125 -0.3384375 10.7365625 -0.4765625 9.828125 C-0.60111816 9.0227832 -0.72567383 8.21744141 -0.85400391 7.38769531 C-1.01522544 4.75099528 -0.61998982 2.55838148 0 0 Z " fill="#BC7AAA" transform="translate(467,231)"/>
<path d="M0 0 C1.875 0.0625 1.875 0.0625 4 1 C6.25 3.5625 6.25 3.5625 8 6 C6.69317199 8.88049117 5.29498997 10.9608743 3.06640625 13.19921875 C2.49986328 13.76833984 1.93332031 14.33746094 1.34960938 14.92382812 C0.75986328 15.50583984 0.17011719 16.08785156 -0.4375 16.6875 C-1.02337891 17.28111328 -1.60925781 17.87472656 -2.21289062 18.48632812 C-2.78072266 19.05158203 -3.34855469 19.61683594 -3.93359375 20.19921875 C-4.44978271 20.71315186 -4.96597168 21.22708496 -5.49780273 21.7565918 C-7 23 -7 23 -10 24 C-11.98 22.02 -13.96 20.04 -16 18 C-14.59165291 13.16760904 -11.69210204 10.51261203 -8 7.3125 C-6.91653248 6.35041151 -5.8331939 5.38817779 -4.75 4.42578125 C-3.8425 3.62527344 -2.935 2.82476563 -2 2 C-1.34 1.34 -0.68 0.68 0 0 Z " fill="#7DA89A" transform="translate(325,692)"/>
<path d="M0 0 C3.84280285 1.24631444 6.07319896 2.36048692 8 6 C7.70260401 10.1905798 5.08448613 12.25034509 2.1875 15.0625 C1.31480469 15.91972656 0.44210937 16.77695312 -0.45703125 17.66015625 C-2.57774539 19.61147387 -4.57947313 21.43953268 -7 23 C-9.9035979 22.85836108 -11.49720384 22.35195731 -13.875 20.6875 C-15 19 -15 19 -14.8359375 17.203125 C-13.70042166 14.21045708 -11.92598514 12.40060324 -9.75 10.0625 C-8.53763672 8.75345703 -8.53763672 8.75345703 -7.30078125 7.41796875 C-4.90549936 4.90068608 -2.49684684 2.41630339 0 0 Z " fill="#A776C9" transform="translate(707,308)"/>
<path d="M0 0 C4.88465182 2.08417044 6.9029487 5.59958652 9.8125 9.875 C10.32748047 10.59558594 10.84246094 11.31617188 11.37304688 12.05859375 C11.85451172 12.75855469 12.33597656 13.45851563 12.83203125 14.1796875 C13.27264893 14.81632324 13.7132666 15.45295898 14.16723633 16.10888672 C15 18 15 18 14.78393555 20.09423828 C13.57171947 23.04115784 11.63145369 24.3083512 9 26 C4.44342034 24.48114011 2.5759927 21.00038284 -0.25 17.25 C-0.8171875 16.53328125 -1.384375 15.8165625 -1.96875 15.078125 C-5.99481527 9.76215532 -5.99481527 9.76215532 -6.01953125 6.12890625 C-4.62141875 3.20947593 -2.62798247 1.81937248 0 0 Z " fill="#A29090" transform="translate(340,286)"/>
<path d="M0 0 C5.42261403 1.47229674 8.54266269 5.20374801 12.3125 9.125 C13.28026367 10.11306641 13.28026367 10.11306641 14.26757812 11.12109375 C15.85207478 12.74080144 17.42912099 14.36710005 19 16 C17.58902801 19.88335083 16.53556325 21.76080994 13 24 C9.95667235 22.6415798 7.87690849 21.11536976 5.546875 18.7421875 C4.928125 18.11699219 4.309375 17.49179687 3.671875 16.84765625 C3.03765625 16.19667969 2.4034375 15.54570313 1.75 14.875 C1.1003125 14.21628906 0.450625 13.55757812 -0.21875 12.87890625 C-1.81711727 11.25703357 -3.41061897 9.6306719 -5 8 C-3.7367158 4.64405806 -2.74084921 2.36709704 0 0 Z " fill="#6E9BD0" transform="translate(697,692)"/>
<path d="M0 0 C1.30200195 1.90185547 1.30200195 1.90185547 2.23828125 4.3671875 C2.58310547 5.25277344 2.92792969 6.13835937 3.28320312 7.05078125 C3.62287109 7.98277344 3.96253906 8.91476562 4.3125 9.875 C4.67150391 10.79925781 5.03050781 11.72351563 5.40039062 12.67578125 C8 19.4991369 8 19.4991369 8 23 C3.545 24.485 3.545 24.485 -1 26 C-10 6.93032787 -10 6.93032787 -10 1 C-6.22743936 -0.8323866 -4.01247835 -1.35405739 0 0 Z " fill="#B77AA2" transform="translate(413,248)"/>
<path d="M0 0 C1.00488281 1.90185547 1.00488281 1.90185547 1.703125 4.3671875 C1.9609375 5.25277344 2.21875 6.13835938 2.484375 7.05078125 C2.73703125 7.98277344 2.9896875 8.91476562 3.25 9.875 C3.518125 10.79925781 3.78625 11.72351563 4.0625 12.67578125 C6 19.48668686 6 19.48668686 6 23 C2.49223216 24.60355101 -0.14354879 25.22036864 -4 25 C-10.30592105 9.08505639 -10.30592105 9.08505639 -10 1 C-3.47843454 -1.51969575 -3.47843454 -1.51969575 0 0 Z " fill="#679DB3" transform="translate(585,762)"/>
<path d="M0 0 C7.75 0.875 7.75 0.875 10 2 C9.36145015 7.52675903 8.06306646 12.62367351 6.4375 17.9375 C6.20353516 18.71673828 5.96957031 19.49597656 5.72851562 20.29882812 C5.15682579 22.20057187 4.57904309 24.10048226 4 26 C0.03942467 26.08680713 -2.57602277 26.10706291 -6 24 C-5.43189471 18.20140805 -4.26320265 13.02313406 -2.4375 7.5 C-2.08655273 6.40945313 -2.08655273 6.40945313 -1.72851562 5.296875 C-1.15867219 3.52919739 -0.58024596 1.76429031 0 0 Z " fill="#6FA8A5" transform="translate(440,761)"/>
<path d="M0 0 C3.71888239 0.50712033 6.73454239 1.11608215 10 3 C8.47209771 8.61473038 6.69050853 14.12180718 4.625 19.5625 C4.24601562 20.57441406 3.86703125 21.58632813 3.4765625 22.62890625 C2 25 2 25 -0.48828125 25.9296875 C-3.76909598 26.0215299 -5.37288972 24.87650734 -8 23 C-7.38696372 17.59491957 -5.55619307 13.07560955 -3.4375 8.125 C-3.10814453 7.34125 -2.77878906 6.5575 -2.43945312 5.75 C-1.63203214 3.83091244 -0.81680231 1.9151135 0 0 Z " fill="#77A6A4" transform="translate(411,751)"/>
<path d="M0 0 C2.68311196 1.9786077 5.34374787 3.98549839 8 6 C8.89847656 6.67289062 9.79695313 7.34578125 10.72265625 8.0390625 C11.61855469 8.72742188 12.51445312 9.41578125 13.4375 10.125 C14.28183594 10.76695312 15.12617188 11.40890625 15.99609375 12.0703125 C18.11663957 14.11231958 18.90491241 15.06417074 19 18 C16.5625 20.75 16.5625 20.75 14 23 C9.17932719 21.4330509 5.62592392 18.70759751 1.6875 15.625 C0.71973633 14.90183594 0.71973633 14.90183594 -0.26757812 14.1640625 C-2.11328125 12.7265625 -2.11328125 12.7265625 -5 10 C-5 4.69520066 -3.4637943 3.81017373 0 0 Z " fill="#9A9592" transform="translate(293,332)"/>
<path d="M0 0 C3.34430737 0.72366315 5.34262343 1.81715496 8 4 C7.51123799 9.03137365 5.08101091 12.22599794 2.1875 16.1875 C1.74857422 16.81591797 1.30964844 17.44433594 0.85742188 18.09179688 C-1.4206005 21.25665708 -3.23339656 23.70934568 -7 25 C-8.98 23.35 -10.96 21.7 -13 20 C-12.38903617 16.74574704 -11.28315701 14.72748915 -9.27734375 12.109375 C-8.73916016 11.40039062 -8.20097656 10.69140625 -7.64648438 9.9609375 C-7.08251953 9.23132813 -6.51855469 8.50171875 -5.9375 7.75 C-5.36966797 7.00492188 -4.80183594 6.25984375 -4.21679688 5.4921875 C-2.81687317 3.65699339 -1.41116779 1.82655313 0 0 Z " fill="#7EA99D" transform="translate(347,713)"/>
<path d="M0 0 C4.64080887 2.09691569 7.73327953 5.32828506 11.3125 8.875 C11.97056641 9.50019531 12.62863281 10.12539063 13.30664062 10.76953125 C13.92345703 11.37925781 14.54027344 11.98898437 15.17578125 12.6171875 C15.74208252 13.17003418 16.30838379 13.72288086 16.8918457 14.29248047 C18 16 18 16 17.83666992 18.07080078 C16.60084596 20.92037212 14.47790099 22.22099416 12 24 C7.241767 21.51783325 3.88365758 18.11579258 0.1875 14.3125 C-0.40998047 13.70599609 -1.00746094 13.09949219 -1.62304688 12.47460938 C-3.08664185 10.98759688 -4.54396102 9.49441189 -6 8 C-4.44805246 4.67240077 -2.69378051 2.51419515 0 0 Z " fill="#9D9390" transform="translate(315,308)"/>
<path d="M0 0 C4.31353877 1.47233334 7.51239715 3.68051361 11.125 6.4375 C12.15882813 7.21996094 13.19265625 8.00242187 14.2578125 8.80859375 C18.56397199 12.24984087 18.56397199 12.24984087 20 14 C19.8579936 16.84012798 19.32548508 18.51177239 17.75 20.875 C16 22 16 22 13.87890625 21.94921875 C9.59484643 20.53669971 6.61470842 17.80717213 3.1875 14.9375 C2.49462891 14.36966797 1.80175781 13.80183594 1.08789062 13.21679688 C-0.61500069 11.81925159 -2.31045377 10.4136241 -4 9 C-3.34820749 5.18416621 -2.53101025 2.97118595 0 0 Z " fill="#6894CF" transform="translate(717,669)"/>
<path d="M0 0 C3.3 0.33 6.6 0.66 10 1 C10.16589226 7.02741895 9.57114133 12.57494793 8.5 18.5 C8.28537109 19.73363281 8.28537109 19.73363281 8.06640625 20.9921875 C7.71693088 22.99584627 7.35931844 24.99808298 7 27 C-0.75 27.125 -0.75 27.125 -3 26 C-2.20596198 17.30737328 -1.10630288 8.65708853 0 0 Z " fill="#C568B2" transform="translate(548,230)"/>
<path d="M0 0 C2.61339711 1.04392927 3.5431433 2.29625852 4.87451172 4.7487793 C4.60094961 7.29013627 4.15240743 8.46413833 2.35571289 10.30444336 C1.71609619 10.78623047 1.07647949 11.26801758 0.41748047 11.7644043 C-0.283125 12.29291992 -0.98373047 12.82143555 -1.70556641 13.3659668 C-2.44226563 13.90479492 -3.17896484 14.44362305 -3.93798828 14.9987793 C-4.66308594 15.55307617 -5.38818359 16.10737305 -6.13525391 16.6784668 C-11.61413514 20.7487793 -11.61413514 20.7487793 -16.12548828 20.7487793 C-18.37548828 17.7487793 -18.37548828 17.7487793 -20.12548828 14.7487793 C-18.04131784 9.86412748 -14.52590176 7.8458306 -10.25048828 4.9362793 C-9.52990234 4.42129883 -8.80931641 3.90631836 -8.06689453 3.37573242 C-7.36693359 2.89426758 -6.66697266 2.41280273 -5.94580078 1.91674805 C-4.99084717 1.25582153 -4.99084717 1.25582153 -4.01660156 0.58154297 C-2.12548828 -0.2512207 -2.12548828 -0.2512207 0 0 Z " fill="#79A596" transform="translate(307.12548828125,670.251220703125)"/>
<path d="M0 0 C0.81942948 2.51876293 1.63065069 5.0397067 2.4375 7.5625 C2.66759766 8.26697266 2.89769531 8.97144531 3.13476562 9.69726562 C4.54653678 14.13718362 5.47065115 18.36971871 6 23 C2.3558226 25.4294516 0.28758728 25.16179575 -4 25 C-5.00646726 21.56435978 -6.0040545 18.12620371 -7 14.6875 C-7.28617187 13.71103516 -7.57234375 12.73457031 -7.8671875 11.72851562 C-8.13789063 10.79072266 -8.40859375 9.85292969 -8.6875 8.88671875 C-8.93886719 8.02264404 -9.19023437 7.15856934 -9.44921875 6.26831055 C-10 4 -10 4 -10 1 C-6.14742381 -0.87125129 -4.12048864 -0.99030231 0 0 Z " fill="#B97EA3" transform="translate(444,238)"/>
<path d="M0 0 C1.91015625 0.1328125 1.91015625 0.1328125 3.91015625 1.1328125 C2.29313497 20.36685505 2.29313497 20.36685505 -0.08984375 25.1328125 C-6.71484375 25.2578125 -6.71484375 25.2578125 -10.08984375 24.1328125 C-8.2868834 0.03007943 -8.2868834 0.03007943 0 0 Z " fill="#6FA6A6" transform="translate(476.08984375,767.8671875)"/>
<path d="M0 0 C4.31085759 0.67915667 6.10640878 1.6777286 9 5 C7.46473873 10.08190913 4.32630342 13.42477886 0.875 17.3125 C0.31167969 17.95767578 -0.25164063 18.60285156 -0.83203125 19.26757812 C-2.21541508 20.85026301 -3.60691045 22.42585141 -5 24 C-9.765625 23.1640625 -9.765625 23.1640625 -11.875 21.6875 C-13 20 -13 20 -12.74047852 18.13769531 C-11.90734533 15.73251426 -10.82371847 14.12780095 -9.27734375 12.109375 C-8.73916016 11.40039062 -8.20097656 10.69140625 -7.64648438 9.9609375 C-7.08251953 9.23132813 -6.51855469 8.50171875 -5.9375 7.75 C-5.36966797 7.00492187 -4.80183594 6.25984375 -4.21679688 5.4921875 C-2.81687317 3.65699339 -1.41116779 1.82655313 0 0 Z " fill="#AD80CE" transform="translate(682,287)"/>
<path d="M0 0 C3.46941546 0.45822468 6.67395049 0.89131683 10 2 C8.56933303 10.1698614 6.35862583 18.05394988 4 26 C-2.625 26.25 -2.625 26.25 -6 24 C-5.52098812 18.73086928 -4.5305023 14.17068295 -2.765625 9.1875 C-1.70575137 6.15928963 -0.8551043 3.09153091 0 0 Z " fill="#C16DBB" transform="translate(581,237)"/>
<path d="M0 0 C1.49821059 3.37097383 2 5.20442119 2 9 C-15.14285714 15 -15.14285714 15 -23 15 C-23.66 12.03 -24.32 9.06 -25 6 C-8.18269231 -0.66346154 -8.18269231 -0.66346154 0 0 Z " fill="#7C85D4" transform="translate(785,434)"/>
<path d="M0 0 C8.53515125 -0.26262004 16.57533253 0.74191632 25 2 C25.02689216 3.47906892 25.04634621 4.95827483 25.0625 6.4375 C25.07410156 7.26121094 25.08570313 8.08492187 25.09765625 8.93359375 C25 11 25 11 24 12 C15.50589556 12.98154096 7.22735609 10.84292776 -1 9 C-0.67 6.03 -0.34 3.06 0 0 Z " fill="#708CD9" transform="translate(768,546)"/>
<path d="M0 0 C1.59660706 2.88909849 2 4.69058796 2 8 C-1.05618749 9.34814664 -4.12086085 10.67582029 -7.1875 12 C-8.05181641 12.3815625 -8.91613281 12.763125 -9.80664062 13.15625 C-10.64775391 13.5171875 -11.48886719 13.878125 -12.35546875 14.25 C-13.12528076 14.58515625 -13.89509277 14.9203125 -14.68823242 15.265625 C-17.24049266 16.07639687 -19.33826057 16.1317489 -22 16 C-23.5625 13.1875 -23.5625 13.1875 -25 10 C-24 7 -24 7 -22.22167969 5.90917969 C-19.73630915 4.8422117 -17.25050624 3.78113659 -14.75 2.75 C-13.89019531 2.37359375 -13.03039062 1.9971875 -12.14453125 1.609375 C-11.30792969 1.25875 -10.47132813 0.908125 -9.609375 0.546875 C-8.84592773 0.22557617 -8.08248047 -0.09572266 -7.29589844 -0.42675781 C-4.49396938 -1.12634622 -2.73446142 -0.88820522 0 0 Z " fill="#8184DB" transform="translate(775,404)"/>
<path d="M0 0 C5.517155 0.6338479 10.26747809 2.50564309 15.375 4.5625 C16.20644531 4.89185547 17.03789063 5.22121094 17.89453125 5.56054688 C19.93184618 6.36844762 21.96684442 7.1817011 24 8 C23.25 14.625 23.25 14.625 21 18 C12.88406495 15.91147495 5.52943541 12.64670147 -2 9 C-1.125 2.25 -1.125 2.25 0 0 Z " fill="#6F8FD7" transform="translate(753,604)"/>
<path d="M0 0 C8.68518048 0.40871438 16.69293749 2.61864208 25 5 C24.125 12.75 24.125 12.75 23 15 C14.73434184 13.74110216 6.94035265 11.60049705 -1 9 C-1.125 2.25 -1.125 2.25 0 0 Z " fill="#6E91D6" transform="translate(762,576)"/>
<path d="M0 0 C7.80414714 1.45501048 15.38893677 3.76973112 23 6 C23.99030231 10.12048864 23.87125129 12.14742381 22 16 C16.52761188 15.55327444 11.3629393 14.41043351 6.0625 13 C5.38759521 12.82178711 4.71269043 12.64357422 4.01733398 12.45996094 C-0.8702467 11.1297533 -0.8702467 11.1297533 -2 10 C-1.9140625 7.96875 -1.9140625 7.96875 -1.625 5.5 C-1.53476563 4.6853125 -1.44453125 3.870625 -1.3515625 3.03125 C-1 1 -1 1 0 0 Z " fill="#87A098" transform="translate(240,433)"/>
<path d="M0 0 C5.6210134 0.55324935 10.21774476 2.04729673 15.375 4.3125 C16.09816406 4.60833984 16.82132812 4.90417969 17.56640625 5.20898438 C22.78022645 7.47352354 22.78022645 7.47352354 23.79931641 9.91479492 C24.10979175 13.14079234 22.56059234 15.25335748 21 18 C13.08090444 15.54234965 5.58014704 12.33181427 -2 9 C-1.125 2.25 -1.125 2.25 0 0 Z " fill="#8CA398" transform="translate(250,403)"/>
<path d="M0 0 C1.23556641 0.01740234 1.23556641 0.01740234 2.49609375 0.03515625 C3.32238281 0.04417969 4.14867187 0.05320312 5 0.0625 C5.63808594 0.07410156 6.27617188 0.08570313 6.93359375 0.09765625 C7.63705969 3.32355647 8.31850077 6.55373098 8.99609375 9.78515625 C9.19525391 10.69716797 9.39441406 11.60917969 9.59960938 12.54882812 C9.78330078 13.43505859 9.96699219 14.32128906 10.15625 15.234375 C10.41547241 16.45193481 10.41547241 16.45193481 10.67993164 17.6940918 C10.96317565 20.37795832 10.58459806 22.49161096 9.93359375 25.09765625 C6.96359375 25.09765625 3.99359375 25.09765625 0.93359375 25.09765625 C-1.49532444 17.46391335 -3.49612384 9.14769908 -3.06640625 1.09765625 C-2.06640625 0.09765625 -2.06640625 0.09765625 0 0 Z " fill="#68A1AD" transform="translate(548.06640625,767.90234375)"/>
<path d="M0 0 C1.60367292 2.54700993 2.06442578 3.61401546 1.55859375 6.64453125 C1.37425781 7.42183594 1.18992187 8.19914063 1 9 C-2.059771 9.84357963 -5.1232046 10.6730202 -8.1875 11.5 C-9.05181641 11.73847656 -9.91613281 11.97695313 -10.80664062 12.22265625 C-11.64775391 12.44824219 -12.48886719 12.67382812 -13.35546875 12.90625 C-14.12528076 13.11572266 -14.89509277 13.32519531 -15.68823242 13.54101562 C-18.17823523 14.03538729 -20.46781499 14.07833519 -23 14 C-24.1577506 10.52674819 -24.06866652 7.63932552 -24 4 C-21.50276548 3.32114013 -19.00303859 2.65682573 -16.5 2 C-15.80390625 1.80921875 -15.1078125 1.6184375 -14.390625 1.421875 C-9.4587081 0.14322988 -5.09419909 -0.18357474 0 0 Z " fill="#7EA79C" transform="translate(262,576)"/>
<path d="M0 0 C8.4346984 0.97283638 16.7480973 1.93702433 25 4 C25.125 10.75 25.125 10.75 24 13 C21.3122562 12.85790331 18.62486698 12.7114277 15.9375 12.5625 C15.18533203 12.52318359 14.43316406 12.48386719 13.65820312 12.44335938 C0.71495126 11.71495126 0.71495126 11.71495126 -1 10 C-0.91036938 8.30858344 -0.75422324 6.62040398 -0.5625 4.9375 C-0.46066406 4.01839844 -0.35882813 3.09929687 -0.25390625 2.15234375 C-0.17011719 1.44207031 -0.08632812 0.73179687 0 0 Z " fill="#87A196" transform="translate(232,465)"/>
<path d="M0 0 C2.65367803 1.01814586 3.56997402 2.25842253 4.9140625 4.734375 C4.78882684 7.97658709 3.74976506 8.89611727 1.40234375 11.20703125 C0.35178268 12.08007002 -0.70716854 12.94309181 -1.7734375 13.796875 C-2.29099609 14.23064453 -2.80855469 14.66441406 -3.34179688 15.11132812 C-6.71946228 17.87487255 -10.12311812 19.92229118 -14.0859375 21.734375 C-16.6484375 19.484375 -16.6484375 19.484375 -19.0859375 16.734375 C-18.95432427 13.91327402 -18.18830957 12.84487533 -16.265625 10.76953125 C-13.88918002 8.73545546 -11.5078788 6.71418485 -9.0859375 4.734375 C-8.42207031 4.18523437 -7.75820313 3.63609375 -7.07421875 3.0703125 C-2.68093402 -0.34139235 -2.68093402 -0.34139235 0 0 Z " fill="#9D7ECD" transform="translate(732.0859375,333.265625)"/>
<path d="M0 0 C0.33 2.97 0.66 5.94 1 9 C-7.41710421 11.25458149 -15.30323552 12.18118259 -24 12 C-25.1577506 8.52674819 -25.06866652 5.63932552 -25 2 C-22.33397504 1.66068773 -19.66736986 1.32842824 -17 1 C-15.88431641 0.85691406 -15.88431641 0.85691406 -14.74609375 0.7109375 C-9.79111949 0.10772324 -4.99157504 -0.09075591 0 0 Z " fill="#7EA297" transform="translate(256,546)"/>
<path d="M0 0 C1.35439668 2.70879335 1.06501451 5.00933268 1 8 C-2.0783338 9.34509414 -5.16340925 10.67397553 -8.25 12 C-9.55904297 12.57234375 -9.55904297 12.57234375 -10.89453125 13.15625 C-11.73886719 13.5171875 -12.58320313 13.878125 -13.453125 14.25 C-14.22817383 14.58515625 -15.00322266 14.9203125 -15.80175781 15.265625 C-18 16 -18 16 -22 16 C-23.87620422 12.83390538 -24.09662822 10.64167599 -24 7 C-20.94682321 5.62407798 -17.88125974 4.27826374 -14.8125 2.9375 C-13.94818359 2.54755859 -13.08386719 2.15761719 -12.19335938 1.75585938 C-11.35224609 1.39169922 -10.51113281 1.02753906 -9.64453125 0.65234375 C-8.87471924 0.31195068 -8.10490723 -0.02844238 -7.31176758 -0.37915039 C-4.50061271 -1.13411573 -2.75594425 -0.88331167 0 0 Z " fill="#7FA799" transform="translate(272,605)"/>
<path d="M0 0 C0.19412181 1.47831221 0.38012131 2.95769316 0.5625 4.4375 C0.66691406 5.26121094 0.77132812 6.08492188 0.87890625 6.93359375 C0.91886719 7.61550781 0.95882812 8.29742187 1 9 C-2.74832871 12.74832871 -14.12613623 12.1372283 -19.3125 12.1875 C-23 12 -23 12 -24 11 C-24.14115161 8.32941149 -24.04247107 5.67567762 -24 3 C-15.82860404 0.88670794 -8.45545041 -0.15039339 0 0 Z " fill="#7C84DA" transform="translate(792,466)"/>
<path d="M0 0 C0.90105469 0.01804687 1.80210937 0.03609375 2.73046875 0.0546875 C3.41753906 0.07789063 4.10460937 0.10109375 4.8125 0.125 C4.8125 0.455 4.8125 0.785 4.8125 1.125 C4.22082031 1.13917969 3.62914062 1.15335937 3.01953125 1.16796875 C-1.10335792 1.41682177 -3.66292878 1.78621442 -7.1875 4.0625 C-11.78374683 11.10050296 -10.35140478 21.58235815 -10.39282227 29.73486328 C-10.40272186 30.95551987 -10.41262146 32.17617645 -10.42282104 33.43382263 C-10.44881687 36.74923497 -10.47075658 40.06462571 -10.49082303 43.38007593 C-10.51284768 46.85675161 -10.54015492 50.33338592 -10.56687927 53.81002808 C-10.61658526 60.37933422 -10.66160505 66.94866361 -10.70490164 73.51801479 C-10.75446414 81.00301674 -10.80931111 88.48797713 -10.86458123 95.97293878 C-10.97806163 111.35692068 -11.08497315 126.74094096 -11.1875 142.125 C-11.5175 142.125 -11.8475 142.125 -12.1875 142.125 C-12.28097659 124.75723237 -12.35149541 107.38954335 -12.39474869 90.02158165 C-12.41536652 81.95717327 -12.44347207 73.89292128 -12.48925781 65.82861328 C-12.52914962 58.79905677 -12.55493849 51.76961352 -12.56385398 44.73994696 C-12.56906482 41.01836666 -12.58129549 37.29711037 -12.61042023 33.575634 C-12.64268417 29.41925485 -12.64345792 25.26343759 -12.64160156 21.10693359 C-12.65598267 19.87550629 -12.67036377 18.64407898 -12.68518066 17.37533569 C-12.65444575 11.02705532 -12.61528583 6.86964632 -8.1875 2.125 C-4.87379 -0.08414 -3.8428979 -0.09981553 0 0 Z " fill="#7795B7" transform="translate(512.1875,344.875)"/>
<path d="M0 0 C0.90105469 0.01804687 1.80210937 0.03609375 2.73046875 0.0546875 C3.41753906 0.07789063 4.10460937 0.10109375 4.8125 0.125 C4.8125 0.455 4.8125 0.785 4.8125 1.125 C4.22082031 1.13917969 3.62914062 1.15335937 3.01953125 1.16796875 C-1.10335792 1.41682177 -3.66292878 1.78621442 -7.1875 4.0625 C-12.40300724 12.04874546 -10.50324479 24.87934504 -10.75 34.25 C-10.79329302 35.79428003 -10.83691033 37.338551 -10.88085938 38.8828125 C-10.98680941 42.63011139 -11.0883787 46.37751353 -11.1875 50.125 C-11.5175 50.125 -11.8475 50.125 -12.1875 50.125 C-12.28661689 44.25346769 -12.35908611 38.38242587 -12.40722656 32.51025391 C-12.42730169 30.51407382 -12.45456789 28.51795225 -12.48925781 26.52197266 C-12.53795657 23.6473138 -12.56050986 20.7734346 -12.578125 17.8984375 C-12.59877014 17.01070648 -12.61941528 16.12297546 -12.64068604 15.20834351 C-12.64267325 9.68051164 -11.93220446 6.47747929 -8.1875 2.125 C-4.87379 -0.08414 -3.8428979 -0.09981553 0 0 Z " fill="#888CB0" transform="translate(512.1875,344.875)"/>
<path d="M0 0 C0 3 0 3 -1.10095215 4.4617157 C-1.61613403 4.97023575 -2.13131592 5.4787558 -2.66210938 6.00268555 C-3.24271118 6.58306076 -3.82331299 7.16343597 -4.42150879 7.76139832 C-5.05584839 8.38025406 -5.69018799 8.9991098 -6.34375 9.63671875 C-7.30927795 10.59587944 -7.30927795 10.59587944 -8.29431152 11.57441711 C-10.35595596 13.61924143 -12.42777661 15.65340245 -14.5 17.6875 C-15.89781717 19.07027471 -17.29496153 20.45372991 -18.69140625 21.83789062 C-22.11984101 25.23321183 -25.55743964 28.61900414 -29 32 C-29.66 31.67 -30.32 31.34 -31 31 C-30.19175781 30.20335937 -29.38351562 29.40671875 -28.55078125 28.5859375 C-27.47121829 27.51576205 -26.39179887 26.44544179 -25.3125 25.375 C-24.78205078 24.85292969 -24.25160156 24.33085937 -23.70507812 23.79296875 C-21.12260661 21.22634062 -18.65360068 18.64315985 -16.3515625 15.8203125 C-14.3602216 13.43202657 -12.43885154 11.48272275 -10.0625 9.5 C-6.52497438 6.48605502 -3.24485782 3.32597926 0 0 Z " fill="#9B9998" transform="translate(301,269)"/>
<path d="M0 0 C0.91007813 0.00902344 1.82015625 0.01804687 2.7578125 0.02734375 C3.45648437 0.03894531 4.15515625 0.05054688 4.875 0.0625 C4.875 0.3925 4.875 0.7225 4.875 1.0625 C4.28332031 1.07667969 3.69164062 1.09085937 3.08203125 1.10546875 C-1.16592453 1.36187065 -3.58172667 1.67768139 -7.125 4.1875 C-9.46785287 7.555351 -9.88630833 10.00474163 -10.125 14.0625 C-10.455 14.0625 -10.785 14.0625 -11.125 14.0625 C-11.61529622 6.83063075 -11.61529622 6.83063075 -9.25 3.125 C-6.06073511 0.02953702 -4.33506709 -0.05557778 0 0 Z " fill="#A293C0" transform="translate(512.125,344.9375)"/>
<path d="M0 0 C0 3 0 3 -1.27734375 4.39453125 C-2.09912109 5.09642578 -2.09912109 5.09642578 -2.9375 5.8125 C-5.97588966 8.6650117 -6.79760618 10.74972988 -7 15 C-7.33 15 -7.66 15 -8 15 C-8.42056594 11.56537817 -8.63981991 9.00514918 -6.734375 6.01171875 C-2.80099278 1.40049639 -2.80099278 1.40049639 0 0 Z " fill="#6E9992" transform="translate(388,573)"/>
<path d="M0 0 C0.99 0.33 1.98 0.66 3 1 C0.19195732 3.96404505 -2.18315774 6.44499019 -6 8 C-4.55746343 4.63408134 -2.66735273 2.48952921 0 0 Z " fill="#918B86" transform="translate(315,308)"/>
<path d="M0 0 C0.99 0.33 1.98 0.66 3 1 C0.38485683 3.12038635 -2.19637616 5.13091744 -5 7 C-5 6.01 -5 5.02 -5 4 C-2.6875 1.75 -2.6875 1.75 0 0 Z " fill="#9C8C89" transform="translate(340,286)"/>
</svg>
